<?xml version="1.0" standalone="no"?>
<!DOCTYPE svg PUBLIC "-//W3C//DTD SVG 20010904//EN"
 "http://www.w3.org/TR/2001/REC-SVG-20010904/DTD/svg10.dtd">
<svg version="1.0" xmlns="http://www.w3.org/2000/svg"
 width="70.000000pt" height="70.000000pt" viewBox="0 0 70.000000 70.000000"
 preserveAspectRatio="xMidYMid meet">

<g transform="translate(0.000000,70.000000) scale(0.100000,-0.100000)"
fill="#000000" stroke="none">
<path d="M394 665 c-8 -33 -47 -50 -74 -33 -15 10 -23 9 -40 -7 -18 -17 -19
-20 -5 -35 13 -14 14 -22 4 -44 -12 -26 -13 -26 -124 -26 -152 0 -145 9 -145
-203 0 -215 -6 -207 155 -207 63 0 115 -3 115 -6 0 -20 -24 -44 -45 -44 -20 0
-25 -5 -25 -25 l0 -25 140 0 140 0 0 25 c0 20 -5 25 -25 25 -21 0 -45 24 -45
44 0 3 52 6 115 6 160 0 155 -7 155 203 0 190 -6 207 -69 207 -33 0 -40 4 -45
25 -4 14 -2 34 3 44 15 27 -19 57 -48 42 -27 -15 -69 4 -73 33 -2 14 -11 22
-30 24 -22 3 -29 -2 -34 -23z m46 -15 c0 -27 67 -56 93 -40 25 15 42 2 23 -19
-14 -15 -14 -21 1 -53 9 -20 25 -39 35 -41 22 -6 24 -27 3 -27 -8 0 -24 -18
-35 -40 -17 -33 -18 -43 -8 -59 17 -27 3 -38 -21 -17 -11 10 -21 13 -25 7 -3
-5 -20 -12 -36 -16 -24 -5 -30 -12 -30 -32 0 -29 -23 -27 -28 3 -2 11 -19 26
-42 36 -34 14 -41 14 -51 2 -8 -10 -15 -12 -22 -5 -7 7 -6 15 1 24 17 20 -15
97 -40 97 -25 0 -23 21 2 27 27 7 55 70 39 89 -15 18 -2 39 16 24 9 -8 24 -7
54 2 32 10 41 18 41 35 0 14 6 23 15 23 8 0 15 -9 15 -20z m-220 -176 c0 -18
5 -24 23 -24 31 0 49 -46 30 -76 -11 -18 -11 -23 7 -39 18 -16 24 -17 41 -7
27 17 58 6 69 -24 13 -32 70 -35 70 -4 0 27 47 46 74 30 15 -10 22 -8 39 9 20
20 20 22 5 38 -15 14 -15 19 -2 45 8 16 23 28 34 28 15 0 20 7 20 25 0 32 27
34 35 3 3 -13 4 -81 3 -153 l-3 -130 -315 0 -315 0 -3 130 c-1 72 0 140 3 152
6 26 17 29 111 25 71 -3 74 -5 74 -28z m450 -307 c0 -35 -20 -37 -320 -37
-300 0 -320 2 -320 37 0 10 64 13 320 13 256 0 320 -3 320 -13z m-266 -73 c12
-30 6 -34 -54 -34 -60 0 -66 4 -54 34 9 23 99 23 108 0z m66 -54 c0 -6 -47
-10 -120 -10 -73 0 -120 4 -120 10 0 6 47 10 120 10 73 0 120 -4 120 -10z"/>
<path d="M373 585 c-17 -7 -39 -27 -47 -44 -65 -125 90 -241 186 -139 22 24
28 39 28 77 0 53 -18 84 -60 106 -36 18 -65 18 -107 0z m119 -34 c25 -22 32
-37 32 -65 0 -65 -61 -117 -120 -102 -75 19 -100 112 -45 167 40 39 89 40 133
0z"/>
<path d="M393 560 c-35 -15 -56 -55 -49 -95 8 -42 39 -65 87 -65 69 0 104 81
57 134 -26 29 -63 39 -95 26z m77 -30 c29 -29 26 -74 -6 -99 -15 -12 -32 -21
-39 -21 -7 0 -24 9 -39 21 -35 28 -35 70 0 98 33 26 58 27 84 1z"/>
<path d="M110 290 c-8 -14 -7 -25 2 -40 21 -34 37 -25 18 10 -7 13 -7 21 0 25
5 3 10 10 10 16 0 16 -19 10 -30 -11z"/>
<path d="M171 286 c-6 -16 -10 -37 -8 -45 3 -11 8 -7 16 13 6 16 10 37 8 45
-3 11 -8 7 -16 -13z"/>
<path d="M210 301 c0 -6 5 -13 10 -16 7 -4 7 -12 0 -25 -19 -35 -3 -44 18 -10
9 15 10 26 2 40 -11 21 -30 27 -30 11z"/>
<path d="M60 150 c0 -5 20 -10 45 -10 25 0 45 5 45 10 0 6 -20 10 -45 10 -25
0 -45 -4 -45 -10z"/>
<path d="M170 150 c0 -5 5 -10 10 -10 6 0 10 5 10 10 0 6 -4 10 -10 10 -5 0
-10 -4 -10 -10z"/>
</g>
</svg>
