<?xml version="1.0" standalone="no"?>
<!DOCTYPE svg PUBLIC "-//W3C//DTD SVG 20010904//EN"
 "http://www.w3.org/TR/2001/REC-SVG-20010904/DTD/svg10.dtd">
<svg version="1.0" xmlns="http://www.w3.org/2000/svg"
 width="50.000000pt" height="50.000000pt" viewBox="0 0 50.000000 50.000000"
 preserveAspectRatio="xMidYMid meet">

<g transform="translate(0.000000,50.000000) scale(0.100000,-0.100000)"
fill="#000000" stroke="none">
<path d="M163 490 c-131 -28 -157 -97 -55 -143 67 -30 217 -30 284 0 83 38 85
88 3 124 -50 22 -171 32 -232 19z"/>
<path d="M40 325 c0 -64 74 -99 210 -99 136 0 210 35 210 99 l0 32 -52 -26
c-47 -23 -65 -26 -158 -26 -93 0 -111 3 -158 26 l-52 26 0 -32z"/>
<path d="M40 222 c0 -61 76 -96 210 -96 97 0 152 15 192 51 17 15 26 79 11 71
-77 -40 -90 -42 -203 -42 -113 0 -126 2 -202 42 -5 2 -8 -10 -8 -26z"/>
<path d="M40 122 c0 -61 76 -96 210 -96 97 0 152 15 192 51 17 15 26 79 11 71
-77 -40 -90 -42 -203 -42 -113 0 -126 2 -202 42 -5 2 -8 -10 -8 -26z"/>
</g>
</svg>
