<?xml version="1.0" standalone="no"?>
<!DOCTYPE svg PUBLIC "-//W3C//DTD SVG 20010904//EN"
 "http://www.w3.org/TR/2001/REC-SVG-20010904/DTD/svg10.dtd">
<svg version="1.0" xmlns="http://www.w3.org/2000/svg"
 width="70.000000pt" height="70.000000pt" viewBox="0 0 70.000000 70.000000"
 preserveAspectRatio="xMidYMid meet">

<g transform="translate(0.000000,70.000000) scale(0.100000,-0.100000)"
fill="#000000" stroke="none">
<path d="M566 640 l-43 -40 -244 -2 -244 -3 0 -195 0 -195 117 -3 118 -3 0
-29 c0 -25 -4 -30 -23 -30 -29 0 -55 -19 -59 -45 -3 -19 3 -20 162 -20 159 0
165 1 162 20 -4 26 -30 45 -59 45 -19 0 -23 5 -23 30 l0 29 118 3 117 3 3 190
c1 106 7 194 12 199 14 14 12 60 -2 74 -24 24 -67 13 -112 -28z m94 4 c12 -13
1 -27 -71 -100 -83 -84 -84 -84 -103 -64 -20 20 -20 20 59 100 44 44 85 80 91
80 6 0 17 -7 24 -16z m-247 -154 c-54 -52 -93 -98 -93 -109 0 -48 -6 -51 -116
-51 -67 0 -104 -4 -104 -11 0 -7 49 -9 153 -7 l153 3 113 118 c62 64 117 117
122 117 5 0 9 -61 9 -135 l0 -135 -300 0 -300 0 0 143 c0 79 3 147 7 150 3 4
106 7 227 7 l221 -1 -92 -89z m61 -28 c15 -18 15 -20 -4 -37 -19 -17 -21 -17
-40 0 -19 17 -19 19 -4 37 10 10 20 18 24 18 4 0 14 -8 24 -18z m-62 -59 c10
-9 18 -20 18 -24 0 -17 -33 -39 -61 -39 -31 0 -36 11 -19 54 11 30 35 33 62 9z
m236 -165 c-4 -10 -72 -13 -298 -13 -226 0 -294 3 -297 13 -4 9 60 12 297 12
237 0 301 -3 298 -12z m-238 -68 l0 -30 -60 0 -60 0 0 30 0 30 60 0 60 0 0
-30z m8 -67 c-38 -2 -98 -2 -135 0 -38 2 -7 3 67 3 74 0 105 -1 68 -3z"/>
</g>
</svg>
