<?xml version="1.0" standalone="no"?>
<!DOCTYPE svg PUBLIC "-//W3C//DTD SVG 20010904//EN"
 "http://www.w3.org/TR/2001/REC-SVG-20010904/DTD/svg10.dtd">
<svg version="1.0" xmlns="http://www.w3.org/2000/svg"
 width="40.000000pt" height="40.000000pt" viewBox="0 0 40.000000 40.000000"
 preserveAspectRatio="xMidYMid meet">

<g transform="translate(0.000000,40.000000) scale(0.100000,-0.100000)"
fill="#000000" stroke="none">
<path d="M12 388 c-17 -17 -17 -359 0 -376 17 -17 359 -17 376 0 8 8 12 49 12
119 0 147 -19 152 -22 7 l-3 -113 -175 0 -175 0 0 125 0 125 188 3 187 2 0 48
c0 26 -5 53 -12 60 -17 17 -359 17 -376 0z m366 -50 l3 -38 -180 0 -181 0 0
33 c0 19 3 37 7 41 4 3 84 5 177 4 l171 -3 3 -37z"/>
<path d="M230 340 c0 -5 5 -10 11 -10 5 0 7 5 4 10 -3 6 -8 10 -11 10 -2 0 -4
-4 -4 -10z"/>
<path d="M280 340 c0 -5 5 -10 11 -10 5 0 7 5 4 10 -3 6 -8 10 -11 10 -2 0 -4
-4 -4 -10z"/>
<path d="M330 340 c0 -5 5 -10 11 -10 5 0 7 5 4 10 -3 6 -8 10 -11 10 -2 0 -4
-4 -4 -10z"/>
</g>
</svg>
