<?xml version="1.0" encoding="UTF-8"?>
<svg xmlns="http://www.w3.org/2000/svg" xmlns:xlink="http://www.w3.org/1999/xlink" viewBox="0 0 70 70" width="70px" height="70px">
<g id="surface233541107">
<path style=" stroke:none;fill-rule:nonzero;fill:rgb(27.058825%,27.058825%,27.058825%);fill-opacity:1;" d="M 35 2.800781 C 17.234375 2.800781 2.800781 17.234375 2.800781 35 C 2.800781 52.765625 17.234375 67.199219 35 67.199219 C 52.765625 67.199219 67.199219 52.765625 67.199219 35 C 67.199219 17.234375 52.765625 2.800781 35 2.800781 Z M 35 5.601562 C 51.253906 5.601562 64.398438 18.746094 64.398438 35 C 64.398438 51.253906 51.253906 64.398438 35 64.398438 C 18.746094 64.398438 5.601562 51.253906 5.601562 35 C 5.601562 18.746094 18.746094 5.601562 35 5.601562 Z M 33.601562 18.199219 L 33.601562 33.601562 L 18.199219 33.601562 L 18.199219 36.398438 L 33.601562 36.398438 L 33.601562 51.800781 L 36.398438 51.800781 L 36.398438 36.398438 L 51.800781 36.398438 L 51.800781 33.601562 L 36.398438 33.601562 L 36.398438 18.199219 Z M 33.601562 18.199219 "/>
</g>
</svg>
